<?xml version="1.0" encoding="UTF-8" standalone="no"?>
<svg
   xmlns:dc="http://purl.org/dc/elements/1.1/"
   xmlns:cc="http://creativecommons.org/ns#"
   xmlns:rdf="http://www.w3.org/1999/02/22-rdf-syntax-ns#"
   xmlns:svg="http://www.w3.org/2000/svg"
   xmlns="http://www.w3.org/2000/svg"
   xmlns:sodipodi="http://sodipodi.sourceforge.net/DTD/sodipodi-0.dtd"
   xmlns:inkscape="http://www.inkscape.org/namespaces/inkscape"
   version="1.0"
   width="170.000000pt"
   height="212.000000pt"
   viewBox="0 0 170.000000 212.000000"
   preserveAspectRatio="xMidYMid meet"
   id="svg10"
   sodipodi:docname="Dr.svg"
   inkscape:version="0.92.2 5c3e80d, 2017-08-06">
  <metadata
     id="metadata16">
    <rdf:RDF>
      <cc:Work
         rdf:about="">
        <dc:format>image/svg+xml</dc:format>
        <dc:type
           rdf:resource="http://purl.org/dc/dcmitype/StillImage" />
        <dc:title />
      </cc:Work>
    </rdf:RDF>
  </metadata>
  <defs
     id="defs14" />
  <sodipodi:namedview
     pagecolor="#c1c1c1"
     bordercolor="#666666"
     borderopacity="1"
     objecttolerance="10"
     gridtolerance="10"
     guidetolerance="10"
     inkscape:pageopacity="0"
     inkscape:pageshadow="2"
     inkscape:window-width="1440"
     inkscape:window-height="779"
     id="namedview12"
     showgrid="false"
     inkscape:zoom="1.6698113"
     inkscape:cx="83.988696"
     inkscape:cy="117.37853"
     inkscape:window-x="0"
     inkscape:window-y="1"
     inkscape:window-maximized="1"
     inkscape:current-layer="g8" />
  <g
     transform="translate(0.000000,212.000000) scale(0.100000,-0.100000)"
     fill="#000000"
     stroke="none"
     id="g8">
    <path
       clip-path="none"
       style="fill:#fbfbfb;fill-opacity:1;stroke:none;stroke-width:15.24750042;stroke-miterlimit:4;stroke-dasharray:none;stroke-opacity:1"
       id="path816"
       d="m 1.9999999,1800 3,-263 L 60,1524 C 233,1480 382,1357 440,1210 536,967 433,686 200,558 141,525 114,515 28,496 L -1.0161236e-7,490 V 229 C -1.0161236e-7,-14 0.9999999,-31 18,-26 c 9,2 44,7 77,11 202,22.9999999 450,145 606,297 134,131 244,313 288,478 45,164 46,357 5,515 -26,98 -116,272 -187,361 -175,219 -468,382 -755,420 L -1.0161236e-7,2063 Z"
       inkscape:connector-curvature="0" />
    <path
       d="m 2,1845 3,-263 55,-13 C 233,1525 382,1402 440,1255 536,1012 433,731 200,603 141,570 114,560 28,541 L 0,535 V 274 C 0,31 1,14 18,19 c 9,2 44,7 77,11 202,23 450,145 606,297 134,131 244,313 288,478 45,164 46,357 5,515 -26,98 -116,272 -187,361 -175,219 -468,382 -755,420 l -52,7 z"
       id="path2"
       style="stroke:none;stroke-width:15.24750042;stroke-miterlimit:4;stroke-dasharray:none;stroke-opacity:1"
       clip-path="none"
       inkscape:connector-curvature="0" />
  </g>
</svg>
