<?xml version="1.0" encoding="UTF-8" standalone="no"?>
<svg
   xmlns:dc="http://purl.org/dc/elements/1.1/"
   xmlns:cc="http://creativecommons.org/ns#"
   xmlns:rdf="http://www.w3.org/1999/02/22-rdf-syntax-ns#"
   xmlns:svg="http://www.w3.org/2000/svg"
   xmlns="http://www.w3.org/2000/svg"
   xmlns:sodipodi="http://sodipodi.sourceforge.net/DTD/sodipodi-0.dtd"
   xmlns:inkscape="http://www.inkscape.org/namespaces/inkscape"
   version="1.0"
   width="170.000000pt"
   height="212.000000pt"
   viewBox="0 0 170.000000 212.000000"
   preserveAspectRatio="xMidYMid meet"
   id="svg10"
   sodipodi:docname="Dr.svg"
   inkscape:version="0.92.2 5c3e80d, 2017-08-06">
  <metadata
     id="metadata16">
    <rdf:RDF>
      <cc:Work
         rdf:about="">
        <dc:format>image/svg+xml</dc:format>
        <dc:type
           rdf:resource="http://purl.org/dc/dcmitype/StillImage" />
        <dc:title></dc:title>
      </cc:Work>
    </rdf:RDF>
  </metadata>
  <defs
     id="defs14" />
  <sodipodi:namedview
     pagecolor="#c1c1c1"
     bordercolor="#666666"
     borderopacity="1"
     objecttolerance="10"
     gridtolerance="10"
     guidetolerance="10"
     inkscape:pageopacity="0"
     inkscape:pageshadow="2"
     inkscape:window-width="1440"
     inkscape:window-height="779"
     id="namedview12"
     showgrid="false"
     inkscape:zoom="1.6698113"
     inkscape:cx="51.050842"
     inkscape:cy="141.33333"
     inkscape:window-x="0"
     inkscape:window-y="1"
     inkscape:window-maximized="1"
     inkscape:current-layer="g8" />
  <g
     transform="translate(0.000000,212.000000) scale(0.100000,-0.100000)"
     fill="#000000"
     stroke="none"
     id="g8">
    <path
       d="M2 1830 l3 -263 55 -13 c173 -44 322 -167 380 -314 96 -243 -7 -524 -240 -652 -59 -33 -86 -43 -172 -62 l-28 -6 0 -261 c0 -243 1 -260 18 -255 9 2 44 7 77 11 202 23 450 145 606 297 134 131 244 313 288 478 45 164 46 357 5 515 -26 98 -116 272 -187 361 -175 219 -468 382 -755 420 l-52 7 2 -263z"
       id="path2"
       style="stroke:#f7f7f7;stroke-opacity:1;stroke-width:15.2475001;stroke-miterlimit:4;stroke-dasharray:none" />
  </g>
</svg>
